  <svg width="113" height="45" viewBox="0 0 113 45" fill="none" xmlns="http://www.w3.org/2000/svg">
  <rect width="113" height="39" fill="#FDFCFC"/>
  <path d="M58.9647 6.68581C59.0011 6.59494 59.01 6.4954 58.9904 6.39953C58.9707 6.30365 58.9233 6.21565 58.8541 6.14645C58.7849 6.07724 58.6969 6.02987 58.601 6.0102C58.5052 5.99053 58.4056 5.99944 58.3147 6.03581L43.7677 11.8548H43.7667L43.3147 12.0348C43.2291 12.069 43.1546 12.1261 43.0995 12.1999C43.0443 12.2738 43.0106 12.3614 43.0021 12.4532C42.9936 12.545 43.0107 12.6373 43.0514 12.72C43.0921 12.8027 43.1549 12.8725 43.2327 12.9218L43.6427 13.1818L43.6437 13.1838L48.6387 16.3618L51.8167 21.3568L51.8187 21.3588L52.0787 21.7688C52.1282 21.8464 52.198 21.9089 52.2807 21.9493C52.3633 21.9897 52.4555 22.0066 52.5471 21.998C52.6387 21.9894 52.7262 21.9558 52.7999 21.9007C52.8735 21.8456 52.9306 21.7712 52.9647 21.6858L58.9647 6.68581ZM57.1317 8.57581L49.6377 16.0698L49.4227 15.7318C49.3834 15.6698 49.3308 15.6172 49.2687 15.5778L48.9307 15.3628L56.4247 7.86881L57.6027 7.39781L57.1327 8.57581H57.1317Z" fill="#009999"/>
  <path d="M15.989 27.131C15.4777 27.131 15.092 27.0443 14.832 26.871C14.572 26.7063 14.442 26.429 14.442 26.039C14.442 25.9697 14.4767 25.935 14.546 25.935C14.624 25.935 14.741 25.9567 14.897 26C15.053 26.0433 15.3563 26.065 15.807 26.065C16.561 26.065 17.2587 25.9827 17.9 25.818C18.5413 25.6533 19.096 25.4323 19.564 25.155C20.032 24.869 20.396 24.5527 20.656 24.206C20.916 23.8507 21.046 23.4867 21.046 23.114C21.046 22.7673 20.942 22.49 20.734 22.282C20.5347 22.074 20.2703 21.918 19.941 21.814C19.6117 21.7013 19.252 21.6277 18.862 21.593C18.472 21.5497 18.0863 21.528 17.705 21.528C17.5403 21.528 17.3757 21.5323 17.211 21.541C17.0463 21.541 16.8903 21.541 16.743 21.541C16.5437 22.217 16.353 22.9103 16.171 23.621C15.989 24.323 15.7983 25.0077 15.599 25.675C15.3477 25.675 15.1353 25.61 14.962 25.48C14.7887 25.35 14.702 25.1897 14.702 24.999C14.702 24.9123 14.7193 24.804 14.754 24.674C14.7887 24.544 14.832 24.401 14.884 24.245C14.936 24.0803 15.0227 23.803 15.144 23.413C15.274 23.023 15.4257 22.5637 15.599 22.035C15.781 21.5063 15.9803 20.9517 16.197 20.371C16.4137 19.7817 16.639 19.2097 16.873 18.655C17.107 18.0917 17.3367 17.589 17.562 17.147C17.2067 17.2163 16.912 17.3073 16.678 17.42C16.4527 17.524 16.2707 17.6193 16.132 17.706C16.002 17.784 15.9023 17.823 15.833 17.823C15.7897 17.823 15.729 17.797 15.651 17.745C15.573 17.6843 15.5037 17.6193 15.443 17.55C15.3823 17.4807 15.352 17.42 15.352 17.368C15.8113 17.1773 16.2837 17.0083 16.769 16.861C17.263 16.7137 17.861 16.64 18.563 16.64C18.8663 16.64 19.2 16.666 19.564 16.718C19.928 16.7613 20.2747 16.8567 20.604 17.004C20.9333 17.1427 21.202 17.3507 21.41 17.628C21.6267 17.9053 21.735 18.278 21.735 18.746C21.735 19.136 21.6483 19.474 21.475 19.76C21.3103 20.0373 21.0893 20.2757 20.812 20.475C20.5347 20.6657 20.2313 20.8217 19.902 20.943C19.5727 21.0643 19.2477 21.1597 18.927 21.229C19.499 21.281 19.9713 21.385 20.344 21.541C20.7167 21.6883 21.007 21.8617 21.215 22.061C21.423 22.2603 21.5703 22.4683 21.657 22.685C21.7437 22.9017 21.787 23.114 21.787 23.322C21.787 23.8247 21.6527 24.2797 21.384 24.687C21.1153 25.0943 20.7643 25.4497 20.331 25.753C19.8977 26.0563 19.421 26.3077 18.901 26.507C18.3897 26.715 17.8783 26.871 17.367 26.975C16.8557 27.079 16.3963 27.131 15.989 27.131ZM16.847 21.112C17.3323 21.0947 17.809 21.0427 18.277 20.956C18.745 20.8607 19.1697 20.7177 19.551 20.527C19.9323 20.3363 20.2357 20.0893 20.461 19.786C20.695 19.474 20.812 19.0927 20.812 18.642C20.812 18.2087 20.6993 17.8793 20.474 17.654C20.2573 17.42 19.9713 17.2597 19.616 17.173C19.2693 17.0777 18.8967 17.03 18.498 17.03C18.472 17.03 18.4503 17.03 18.433 17.03C18.4157 17.03 18.394 17.0343 18.368 17.043C18.0733 17.6323 17.8003 18.2737 17.549 18.967C17.3063 19.6603 17.0723 20.3753 16.847 21.112ZM23.1356 26.416C22.7543 26.416 22.49 26.2903 22.3426 26.039C22.1953 25.7963 22.1216 25.519 22.1216 25.207C22.1216 24.9297 22.165 24.648 22.2516 24.362C22.3383 24.076 22.4553 23.8073 22.6026 23.556C22.75 23.3047 22.9146 23.101 23.0966 22.945C23.2786 22.789 23.465 22.711 23.6556 22.711C23.7076 22.711 23.7683 22.724 23.8376 22.75C23.9156 22.7673 23.972 22.7933 24.0066 22.828C23.9113 22.932 23.8073 23.0793 23.6946 23.27C23.5906 23.4607 23.491 23.6687 23.3956 23.894C23.309 24.1107 23.2353 24.3317 23.1746 24.557C23.1226 24.7737 23.0966 24.973 23.0966 25.155C23.0966 25.3543 23.1313 25.5103 23.2006 25.623C23.27 25.7357 23.3826 25.792 23.5386 25.792C23.712 25.792 23.9156 25.701 24.1496 25.519C24.3923 25.3283 24.622 25.0987 24.8386 24.83C24.57 24.596 24.3706 24.3273 24.2406 24.024C24.1193 23.712 24.0586 23.361 24.0586 22.971C24.0586 22.7543 24.1063 22.5247 24.2016 22.282C24.297 22.0393 24.4443 21.8357 24.6436 21.671C24.843 21.5063 25.103 21.424 25.4236 21.424C25.7876 21.424 26.039 21.528 26.1776 21.736C26.325 21.9353 26.3986 22.178 26.3986 22.464C26.3986 22.7847 26.312 23.1487 26.1386 23.556C25.974 23.9547 25.7746 24.336 25.5406 24.7C25.662 24.7693 25.7963 24.804 25.9436 24.804C26.0736 24.804 26.2296 24.7737 26.4116 24.713C26.5936 24.6523 26.767 24.5527 26.9316 24.414C27.105 24.2667 27.2436 24.076 27.3476 23.842L27.5556 23.998C27.3736 24.4227 27.1223 24.7347 26.8016 24.934C26.4896 25.1247 26.1863 25.22 25.8916 25.22C25.779 25.22 25.6663 25.2113 25.5536 25.194C25.441 25.168 25.337 25.1333 25.2416 25.09C24.947 25.454 24.6133 25.766 24.2406 26.026C23.8766 26.286 23.5083 26.416 23.1356 26.416ZM25.1376 24.44C25.3543 24.1367 25.532 23.8117 25.6706 23.465C25.818 23.1097 25.8916 22.7847 25.8916 22.49C25.8916 22.2733 25.857 22.1173 25.7876 22.022C25.727 21.918 25.6403 21.866 25.5276 21.866C25.3543 21.866 25.181 21.9873 25.0076 22.23C24.8343 22.464 24.7476 22.763 24.7476 23.127C24.7476 23.335 24.778 23.569 24.8386 23.829C24.908 24.0803 25.0076 24.284 25.1376 24.44ZM27.9472 26.416C27.5658 26.416 27.3015 26.2903 27.1542 26.039C27.0068 25.7963 26.9332 25.519 26.9332 25.207C26.9332 24.9297 26.9765 24.648 27.0632 24.362C27.1498 24.076 27.2668 23.8073 27.4142 23.556C27.5615 23.3047 27.7262 23.101 27.9082 22.945C28.0902 22.789 28.2765 22.711 28.4672 22.711C28.5192 22.711 28.5798 22.724 28.6492 22.75C28.7272 22.7673 28.7835 22.7933 28.8182 22.828C28.7228 22.932 28.6188 23.0793 28.5062 23.27C28.4022 23.4607 28.3025 23.6687 28.2072 23.894C28.1205 24.1107 28.0468 24.3317 27.9862 24.557C27.9342 24.7737 27.9082 24.973 27.9082 25.155C27.9082 25.3543 27.9428 25.5103 28.0122 25.623C28.0815 25.7357 28.1942 25.792 28.3502 25.792C28.5235 25.792 28.7272 25.701 28.9612 25.519C29.2038 25.3283 29.4335 25.0987 29.6502 24.83C29.3815 24.596 29.1822 24.3273 29.0522 24.024C28.9308 23.712 28.8702 23.361 28.8702 22.971C28.8702 22.7543 28.9178 22.5247 29.0132 22.282C29.1085 22.0393 29.2558 21.8357 29.4552 21.671C29.6545 21.5063 29.9145 21.424 30.2352 21.424C30.5992 21.424 30.8505 21.528 30.9892 21.736C31.1365 21.9353 31.2102 22.178 31.2102 22.464C31.2102 22.7847 31.1235 23.1487 30.9502 23.556C30.7855 23.9547 30.5862 24.336 30.3522 24.7C30.4735 24.7693 30.6078 24.804 30.7552 24.804C30.8852 24.804 31.0412 24.7737 31.2232 24.713C31.4052 24.6523 31.5785 24.5527 31.7432 24.414C31.9165 24.2667 32.0552 24.076 32.1592 23.842L32.3672 23.998C32.1852 24.4227 31.9338 24.7347 31.6132 24.934C31.3012 25.1247 30.9978 25.22 30.7032 25.22C30.5905 25.22 30.4778 25.2113 30.3652 25.194C30.2525 25.168 30.1485 25.1333 30.0532 25.09C29.7585 25.454 29.4248 25.766 29.0522 26.026C28.6882 26.286 28.3198 26.416 27.9472 26.416ZM29.9492 24.44C30.1658 24.1367 30.3435 23.8117 30.4822 23.465C30.6295 23.1097 30.7032 22.7847 30.7032 22.49C30.7032 22.2733 30.6685 22.1173 30.5992 22.022C30.5385 21.918 30.4518 21.866 30.3392 21.866C30.1658 21.866 29.9925 21.9873 29.8192 22.23C29.6458 22.464 29.5592 22.763 29.5592 23.127C29.5592 23.335 29.5895 23.569 29.6502 23.829C29.7195 24.0803 29.8192 24.284 29.9492 24.44ZM35.9177 26.494C35.6577 26.494 35.4324 26.4073 35.2417 26.234C35.051 26.0693 34.8994 25.857 34.7867 25.597C34.674 25.337 34.5874 25.0727 34.5267 24.804C34.4747 24.5353 34.4487 24.3013 34.4487 24.102C34.5614 24.0847 34.7087 24.05 34.8907 23.998C35.0727 23.946 35.259 23.8767 35.4497 23.79C35.6404 23.6947 35.8007 23.5777 35.9307 23.439C36.0607 23.2917 36.1257 23.1183 36.1257 22.919C36.1257 22.7543 36.0694 22.6243 35.9567 22.529C35.844 22.425 35.701 22.373 35.5277 22.373C35.2764 22.373 35.038 22.4597 34.8127 22.633C34.5874 22.7977 34.3794 23.0187 34.1887 23.296C34.0067 23.5647 33.842 23.8593 33.6947 24.18C33.5474 24.492 33.4174 24.7953 33.3047 25.09C33.192 25.376 33.0967 25.623 33.0187 25.831C32.9407 26.0563 32.854 26.208 32.7587 26.286C32.672 26.364 32.555 26.403 32.4077 26.403C32.321 26.403 32.2387 26.3683 32.1607 26.299C32.0827 26.2383 32.022 26.13 31.9787 25.974C31.944 25.818 31.9267 25.61 31.9267 25.35C31.9267 24.8473 32.0004 24.2883 32.1477 23.673C32.295 23.049 32.49 22.412 32.7327 21.762C32.984 21.112 33.257 20.488 33.5517 19.89C33.8464 19.292 34.141 18.7547 34.4357 18.278C34.739 17.8013 35.0207 17.4243 35.2807 17.147C35.5407 16.861 35.753 16.718 35.9177 16.718C36.0564 16.718 36.169 16.8047 36.2557 16.978C36.351 17.1513 36.3987 17.368 36.3987 17.628C36.3987 17.9227 36.3337 18.252 36.2037 18.616C36.0737 18.98 35.8874 19.3483 35.6447 19.721C35.4107 20.085 35.129 20.4317 34.7997 20.761C34.479 21.0903 34.1194 21.372 33.7207 21.606C33.4694 22.2213 33.2744 22.8237 33.1357 23.413C33.0057 24.0023 32.9277 24.5137 32.9017 24.947C33.049 24.5917 33.2224 24.2233 33.4217 23.842C33.621 23.452 33.842 23.0837 34.0847 22.737C34.336 22.3903 34.6047 22.113 34.8907 21.905C35.1767 21.6883 35.48 21.58 35.8007 21.58C36.1387 21.58 36.429 21.697 36.6717 21.931C36.923 22.165 37.0487 22.4597 37.0487 22.815C37.0487 23.075 36.975 23.3047 36.8277 23.504C36.689 23.6947 36.5157 23.8507 36.3077 23.972C36.1084 24.0933 35.9047 24.1843 35.6967 24.245C35.4974 24.3057 35.3284 24.336 35.1897 24.336C35.207 24.44 35.2374 24.5787 35.2807 24.752C35.324 24.9253 35.3847 25.103 35.4627 25.285C35.5494 25.4583 35.6534 25.6057 35.7747 25.727C35.896 25.8483 36.039 25.909 36.2037 25.909C36.4377 25.909 36.6674 25.8137 36.8927 25.623C37.118 25.4237 37.339 25.1637 37.5557 24.843C37.7724 24.5137 37.9674 24.1497 38.1407 23.751L38.2967 23.946C38.158 24.3707 37.963 24.7823 37.7117 25.181C37.4604 25.571 37.1787 25.8873 36.8667 26.13C36.5547 26.3727 36.2384 26.494 35.9177 26.494ZM34.0457 20.852C34.3404 20.6007 34.622 20.306 34.8907 19.968C35.168 19.63 35.3934 19.2833 35.5667 18.928C35.7487 18.564 35.844 18.239 35.8527 17.953C35.8527 17.927 35.8484 17.9097 35.8397 17.901C35.8397 17.8923 35.8397 17.888 35.8397 17.888C35.753 17.9053 35.61 18.0527 35.4107 18.33C35.22 18.6073 35.0034 18.967 34.7607 19.409C34.518 19.8423 34.2797 20.3233 34.0457 20.852ZM47.9271 26.403C47.5977 26.403 47.3551 26.3033 47.1991 26.104C47.0431 25.9133 46.9651 25.6837 46.9651 25.415C46.9651 25.207 46.9954 25.0033 47.0561 24.804C47.1167 24.596 47.1774 24.3923 47.2381 24.193C47.3074 23.9937 47.3421 23.8117 47.3421 23.647C47.3421 23.491 47.3074 23.3827 47.2381 23.322C47.1774 23.2613 47.1037 23.231 47.0171 23.231C46.8091 23.231 46.5751 23.3913 46.3151 23.712C46.0551 24.024 45.7257 24.4747 45.3271 25.064C45.1884 25.272 45.0627 25.4887 44.9501 25.714C44.8374 25.9393 44.7334 26.1343 44.6381 26.299C44.5687 26.299 44.4734 26.286 44.3521 26.26C44.2307 26.234 44.1224 26.1993 44.0271 26.156C43.9404 26.1127 43.8971 26.0563 43.8971 25.987C43.8971 25.909 43.9404 25.7573 44.0271 25.532C44.1137 25.3067 44.2134 25.0423 44.3261 24.739C44.4387 24.4357 44.5341 24.1367 44.6121 23.842C44.6987 23.5387 44.7421 23.283 44.7421 23.075C44.7421 22.945 44.7204 22.8453 44.6771 22.776C44.6337 22.698 44.5601 22.659 44.4561 22.659C44.2741 22.659 44.0531 22.7717 43.7931 22.997C43.5331 23.2137 43.2601 23.4997 42.9741 23.855C42.6881 24.2103 42.4194 24.609 42.1681 25.051C41.9254 25.4843 41.7261 25.9177 41.5701 26.351C41.4747 26.351 41.3621 26.3337 41.2321 26.299C41.1021 26.2643 40.9894 26.221 40.8941 26.169C40.7987 26.117 40.7511 26.0693 40.7511 26.026C40.7511 26 40.7857 25.8657 40.8551 25.623C40.9244 25.3803 41.0111 25.0813 41.1151 24.726C41.2104 24.3707 41.3014 24.0067 41.3881 23.634C41.4834 23.2613 41.5571 22.932 41.6091 22.646C41.6437 22.568 41.7347 22.4943 41.8821 22.425C42.0294 22.3557 42.1637 22.321 42.2851 22.321C42.4064 22.321 42.5017 22.3557 42.5711 22.425C42.6491 22.4943 42.6881 22.5897 42.6881 22.711C42.6881 22.8063 42.6664 22.958 42.6231 23.166C42.5797 23.3653 42.5234 23.5907 42.4541 23.842C42.6361 23.582 42.8311 23.3263 43.0391 23.075C43.2471 22.815 43.4637 22.581 43.6891 22.373C43.9231 22.165 44.1527 22.0003 44.3781 21.879C44.6121 21.749 44.8417 21.684 45.0671 21.684C45.3704 21.684 45.5741 21.7923 45.6781 22.009C45.7907 22.2257 45.8471 22.4683 45.8471 22.737C45.8471 22.8843 45.8297 23.036 45.7951 23.192C45.7691 23.348 45.7344 23.4953 45.6911 23.634C45.6564 23.7727 45.6131 23.9113 45.5611 24.05C45.7257 23.7813 45.9121 23.5257 46.1201 23.283C46.3281 23.0403 46.5491 22.8497 46.7831 22.711C47.0171 22.5637 47.2684 22.49 47.5371 22.49C47.8577 22.49 48.0787 22.5853 48.2001 22.776C48.3214 22.9667 48.3821 23.179 48.3821 23.413C48.3821 23.6383 48.3431 23.881 48.2651 24.141C48.1957 24.3923 48.1221 24.635 48.0441 24.869C47.9661 25.0943 47.9271 25.2893 47.9271 25.454C47.9271 25.5493 47.9487 25.636 47.9921 25.714C48.0441 25.792 48.1394 25.831 48.2781 25.831C48.5121 25.831 48.7374 25.7227 48.9541 25.506C49.1707 25.2893 49.3701 25.025 49.5521 24.713C49.7341 24.3923 49.8901 24.089 50.0201 23.803L50.2151 24.037C50.0764 24.401 49.8987 24.765 49.6821 25.129C49.4654 25.493 49.2097 25.7963 48.9151 26.039C48.6204 26.2817 48.2911 26.403 47.9271 26.403ZM50.3226 29.64C50.1059 29.64 49.9066 29.575 49.7246 29.445C49.5513 29.315 49.4646 29.1157 49.4646 28.847C49.4646 28.5697 49.5426 28.3183 49.6986 28.093C49.8546 27.8763 50.0583 27.677 50.3096 27.495C50.5609 27.313 50.8339 27.144 51.1286 26.988C51.4319 26.832 51.7309 26.6803 52.0256 26.533C52.1296 26.2643 52.2423 25.935 52.3636 25.545C52.4849 25.155 52.5933 24.7693 52.6886 24.388C52.4199 24.7867 52.1296 25.1377 51.8176 25.441C51.5143 25.7357 51.1763 25.883 50.8036 25.883C50.6476 25.883 50.4829 25.8527 50.3096 25.792C50.1449 25.7227 50.0063 25.61 49.8936 25.454C49.7809 25.2893 49.7246 25.077 49.7246 24.817C49.7246 24.583 49.7636 24.3057 49.8416 23.985C49.9283 23.6643 50.0323 23.3523 50.1536 23.049C50.2836 22.7457 50.4136 22.4943 50.5436 22.295C50.6823 22.087 50.8036 21.983 50.9076 21.983C50.9509 21.983 51.0203 22.0003 51.1156 22.035C51.2109 22.0697 51.3019 22.1173 51.3886 22.178C51.4839 22.2387 51.5403 22.3037 51.5576 22.373C51.4796 22.477 51.3929 22.6287 51.2976 22.828C51.2023 23.0273 51.1113 23.2483 51.0246 23.491C50.9379 23.7337 50.8643 23.972 50.8036 24.206C50.7516 24.44 50.7256 24.6393 50.7256 24.804C50.7256 24.9427 50.7516 25.0597 50.8036 25.155C50.8643 25.2503 50.9726 25.298 51.1286 25.298C51.3106 25.298 51.5013 25.22 51.7006 25.064C51.9086 24.908 52.1123 24.7087 52.3116 24.466C52.5109 24.2147 52.6886 23.959 52.8446 23.699C52.8706 23.621 52.8923 23.5257 52.9096 23.413C52.9269 23.2917 52.9529 23.166 52.9876 23.036C53.0223 22.8973 53.0916 22.763 53.1956 22.633C53.3083 22.4943 53.4643 22.425 53.6636 22.425C53.7243 22.425 53.7806 22.4293 53.8326 22.438C53.8933 22.4467 53.9626 22.4597 54.0406 22.477C54.0406 22.607 53.9929 22.8627 53.8976 23.244C53.8109 23.6167 53.6939 24.0543 53.5466 24.557C53.3993 25.051 53.2303 25.5493 53.0396 26.052C53.4209 25.9047 53.8066 25.6577 54.1966 25.311C54.5866 24.9557 54.9029 24.4703 55.1456 23.855L55.3536 24.011C55.2236 24.4443 55.0243 24.8213 54.7556 25.142C54.4956 25.454 54.2009 25.7227 53.8716 25.948C53.5423 26.1647 53.2129 26.3467 52.8836 26.494C52.6496 27.0573 52.3983 27.5773 52.1296 28.054C51.8609 28.5393 51.5749 28.925 51.2716 29.211C50.9769 29.497 50.6606 29.64 50.3226 29.64ZM50.2186 29.185C50.3746 29.185 50.5999 29.0117 50.8946 28.665C51.1979 28.3183 51.5056 27.7723 51.8176 27.027C51.5143 27.183 51.2196 27.352 50.9336 27.534C50.6476 27.7247 50.4093 27.924 50.2186 28.132C50.0279 28.34 49.9326 28.5653 49.9326 28.808C49.9326 28.886 49.9543 28.9683 49.9976 29.055C50.0409 29.1417 50.1146 29.185 50.2186 29.185ZM58.1909 29.64C58.0955 29.64 57.9872 29.6097 57.8659 29.549C57.7359 29.4883 57.6232 29.3713 57.5279 29.198C57.4325 29.0247 57.3849 28.7733 57.3849 28.444C57.3849 28.0627 57.4499 27.5687 57.5799 26.962C57.7099 26.3553 57.8875 25.6837 58.1129 24.947C58.3295 24.2103 58.5852 23.4563 58.8799 22.685C59.1832 21.9137 59.5039 21.1683 59.8419 20.449C60.1885 19.7297 60.5439 19.084 60.9079 18.512C61.2719 17.94 61.6315 17.485 61.9869 17.147C62.3509 16.809 62.6975 16.64 63.0269 16.64C63.2349 16.64 63.3692 16.705 63.4299 16.835C63.4992 16.9563 63.5339 17.0993 63.5339 17.264C63.5339 17.6367 63.4299 18.044 63.2219 18.486C63.0225 18.928 62.7539 19.3743 62.4159 19.825C62.0779 20.267 61.7009 20.6917 61.2849 21.099C60.8689 21.4977 60.4442 21.8443 60.0109 22.139C59.9762 22.217 59.9415 22.2907 59.9069 22.36C59.8809 22.4293 59.8505 22.5117 59.8159 22.607C59.8939 22.6503 59.9589 22.711 60.0109 22.789C60.0715 22.8583 60.1062 22.9407 60.1149 23.036C60.1842 23.504 60.3272 23.8333 60.5439 24.024C60.7692 24.206 61.0249 24.297 61.3109 24.297C61.5189 24.297 61.7355 24.258 61.9609 24.18C62.1949 24.0933 62.4159 23.9937 62.6239 23.881C62.7279 23.413 62.8752 22.9147 63.0659 22.386C63.2652 21.8487 63.4905 21.307 63.7419 20.761C64.0019 20.215 64.2662 19.6993 64.5349 19.214C64.8122 18.72 65.0809 18.278 65.3409 17.888C65.6095 17.498 65.8522 17.1947 66.0689 16.978C66.2855 16.7527 66.4632 16.64 66.6019 16.64C66.7059 16.64 66.7925 16.6963 66.8619 16.809C66.9399 16.9217 67.0005 17.0603 67.0439 17.225C67.0872 17.381 67.1089 17.524 67.1089 17.654C67.1089 17.888 67.0482 18.1913 66.9269 18.564C66.8142 18.9367 66.6539 19.3527 66.4459 19.812C66.2379 20.2627 65.9865 20.7263 65.6919 21.203C65.4059 21.671 65.0852 22.1173 64.7299 22.542C64.3832 22.9667 64.0105 23.335 63.6119 23.647C63.5685 23.881 63.5295 24.1107 63.4949 24.336C63.4689 24.5613 63.4559 24.7693 63.4559 24.96C63.4559 25.272 63.5035 25.506 63.5989 25.662C63.7029 25.8093 63.8415 25.883 64.0149 25.883C64.2489 25.883 64.4829 25.779 64.7169 25.571C64.9509 25.363 65.1719 25.103 65.3799 24.791C65.5879 24.4703 65.7655 24.141 65.9129 23.803L66.1989 23.959C65.8349 24.7217 65.4362 25.324 65.0029 25.766C64.5782 26.208 64.1189 26.429 63.6249 26.429C63.2002 26.429 62.9012 26.286 62.7279 26C62.5632 25.7053 62.4809 25.35 62.4809 24.934C62.4809 24.7607 62.4982 24.57 62.5329 24.362C62.0649 24.6047 61.5969 24.726 61.1289 24.726C60.9902 24.726 60.8429 24.7087 60.6869 24.674C60.5309 24.6393 60.3792 24.5873 60.2319 24.518C60.2319 24.6047 60.2362 24.6913 60.2449 24.778C60.2535 24.8647 60.2579 24.947 60.2579 25.025C60.2579 25.571 60.2015 26.1127 60.0889 26.65C59.9762 27.196 59.8202 27.6943 59.6209 28.145C59.4302 28.5957 59.2092 28.9553 58.9579 29.224C58.7152 29.5013 58.4595 29.64 58.1909 29.64ZM58.5419 28.899C58.6632 28.899 58.7932 28.7733 58.9319 28.522C59.0792 28.2707 59.2179 27.95 59.3479 27.56C59.4779 27.17 59.5819 26.7497 59.6599 26.299C59.7465 25.857 59.7899 25.441 59.7899 25.051C59.7899 24.843 59.7682 24.6133 59.7249 24.362C59.6815 24.1107 59.5862 23.894 59.4389 23.712C59.2222 24.3447 59.0272 24.96 58.8539 25.558C58.6892 26.1473 58.5592 26.6803 58.4639 27.157C58.3685 27.6337 58.3209 28.0193 58.3209 28.314C58.3209 28.704 58.3945 28.899 58.5419 28.899ZM60.3229 21.346C60.8602 20.852 61.3195 20.3623 61.7009 19.877C62.0909 19.3917 62.3899 18.9583 62.5979 18.577C62.8059 18.1957 62.9099 17.9227 62.9099 17.758C62.9099 17.6713 62.8665 17.628 62.7799 17.628C62.5719 17.628 62.3292 17.797 62.0519 18.135C61.7745 18.4643 61.4885 18.9107 61.1939 19.474C60.8992 20.0373 60.6089 20.6613 60.3229 21.346ZM63.8069 23.01C64.0322 22.776 64.2662 22.4987 64.5089 22.178C64.7515 21.8487 64.9899 21.4977 65.2239 21.125C65.4665 20.7523 65.6832 20.3797 65.8739 20.007C66.0732 19.6343 66.2379 19.279 66.3679 18.941C66.4979 18.5943 66.5759 18.2867 66.6019 18.018C66.6019 17.9573 66.5975 17.9097 66.5889 17.875C66.5802 17.8317 66.5672 17.81 66.5499 17.81C66.4892 17.7927 66.3765 17.888 66.2119 18.096C66.0559 18.2953 65.8695 18.5727 65.6529 18.928C65.4449 19.2747 65.2239 19.6733 64.9899 20.124C64.7645 20.5747 64.5479 21.047 64.3399 21.541C64.1319 22.035 63.9542 22.5247 63.8069 23.01ZM66.6074 26.377C66.2434 26.377 65.9704 26.2643 65.7884 26.039C65.6064 25.8223 65.5154 25.5537 65.5154 25.233C65.5154 25.0337 65.5501 24.7823 65.6194 24.479C65.6888 24.1757 65.7841 23.8593 65.9054 23.53C66.0354 23.192 66.1828 22.8757 66.3474 22.581C66.5121 22.2863 66.6854 22.048 66.8674 21.866C67.0581 21.6753 67.2444 21.58 67.4264 21.58C67.5218 21.58 67.6041 21.6103 67.6734 21.671C67.7514 21.7317 67.7904 21.8183 67.7904 21.931C67.7904 22.0437 67.7211 22.2127 67.5824 22.438C67.4524 22.6633 67.2964 22.9277 67.1144 23.231C66.9324 23.5257 66.7721 23.8333 66.6334 24.154C66.5034 24.4747 66.4384 24.7823 66.4384 25.077C66.4384 25.363 66.4904 25.5537 66.5944 25.649C66.6984 25.7443 66.8501 25.792 67.0494 25.792C67.3441 25.792 67.6604 25.6447 67.9984 25.35C68.3451 25.0553 68.7048 24.5397 69.0774 23.803L69.2464 23.985C68.9604 24.7477 68.5791 25.337 68.1024 25.753C67.6344 26.169 67.1361 26.377 66.6074 26.377ZM68.1544 20.475C67.9984 20.475 67.8554 20.436 67.7254 20.358C67.6041 20.28 67.5434 20.163 67.5434 20.007C67.5434 19.799 67.6518 19.6257 67.8684 19.487C68.0938 19.3397 68.3234 19.266 68.5574 19.266C68.7048 19.266 68.8261 19.3007 68.9214 19.37C69.0168 19.4393 69.0644 19.5563 69.0644 19.721C69.0644 19.903 68.9691 20.0763 68.7784 20.241C68.5878 20.397 68.3798 20.475 68.1544 20.475ZM69.3656 29.64C69.1576 29.64 68.9626 29.575 68.7806 29.445C68.6072 29.3237 68.5206 29.12 68.5206 28.834C68.5206 28.5653 68.6029 28.3183 68.7676 28.093C68.9236 27.8763 69.1316 27.6727 69.3916 27.482C69.6516 27.3 69.9332 27.131 70.2366 26.975C70.5399 26.819 70.8302 26.6717 71.1076 26.533C71.2116 26.273 71.3112 25.9957 71.4066 25.701C71.5019 25.4063 71.5929 25.0813 71.6796 24.726C71.3676 25.142 71.0382 25.4887 70.6916 25.766C70.3536 26.0347 70.0069 26.169 69.6516 26.169C69.3222 26.169 69.0579 26.052 68.8586 25.818C68.6679 25.5753 68.5726 25.259 68.5726 24.869C68.5726 24.4097 68.6852 23.9807 68.9106 23.582C69.1446 23.1747 69.4392 22.815 69.7946 22.503C70.1586 22.1823 70.5442 21.9353 70.9516 21.762C71.3676 21.58 71.7576 21.489 72.1216 21.489C72.3902 21.489 72.5896 21.5367 72.7196 21.632C72.8496 21.7273 72.9146 21.8357 72.9146 21.957C72.9146 22.0523 72.8842 22.1303 72.8236 22.191C72.7716 22.243 72.7369 22.2733 72.7196 22.282C72.6502 22.1953 72.5679 22.139 72.4726 22.113C72.3859 22.0783 72.2819 22.061 72.1606 22.061C71.8226 22.061 71.4976 22.1563 71.1856 22.347C70.8736 22.5377 70.5962 22.7847 70.3536 23.088C70.1109 23.3913 69.9202 23.7077 69.7816 24.037C69.6429 24.3577 69.5736 24.6523 69.5736 24.921C69.5736 25.103 69.6126 25.246 69.6906 25.35C69.7686 25.4453 69.8682 25.493 69.9896 25.493C70.2409 25.493 70.5399 25.3327 70.8866 25.012C71.2332 24.6827 71.5669 24.2883 71.8876 23.829C71.9136 23.7423 71.9309 23.6643 71.9396 23.595C71.9569 23.5257 71.9742 23.4477 71.9916 23.361C72.0609 23.0923 72.1519 22.88 72.2646 22.724C72.3772 22.5593 72.5419 22.477 72.7586 22.477C72.8019 22.477 72.8539 22.4813 72.9146 22.49C72.9752 22.49 73.0402 22.4987 73.1096 22.516C73.1096 22.672 73.0662 22.932 72.9796 23.296C72.8929 23.6513 72.7759 24.0673 72.6286 24.544C72.4812 25.0207 72.3122 25.5103 72.1216 26.013C72.3989 25.8917 72.6719 25.727 72.9406 25.519C73.2179 25.311 73.4736 25.064 73.7076 24.778C73.9416 24.492 74.1192 24.1757 74.2406 23.829L74.4486 24.024C74.3099 24.4227 74.0976 24.7867 73.8116 25.116C73.5256 25.4367 73.2136 25.7183 72.8756 25.961C72.5462 26.195 72.2429 26.377 71.9656 26.507C71.7229 27.079 71.4672 27.6033 71.1986 28.08C70.9299 28.5567 70.6439 28.9337 70.3406 29.211C70.0372 29.497 69.7122 29.64 69.3656 29.64ZM69.3136 29.107C69.4782 29.107 69.6992 28.951 69.9766 28.639C70.2626 28.327 70.5702 27.7983 70.8996 27.053C70.5702 27.2177 70.2669 27.3823 69.9896 27.547C69.7122 27.7203 69.4869 27.9023 69.3136 28.093C69.1402 28.2837 69.0536 28.4873 69.0536 28.704C69.0536 28.8253 69.0796 28.9207 69.1316 28.99C69.1836 29.068 69.2442 29.107 69.3136 29.107ZM74.5453 26.494C74.3633 26.494 74.2289 26.3467 74.1423 26.052C74.0556 25.766 74.0123 25.4367 74.0123 25.064C74.0123 24.6567 74.0816 24.1713 74.2203 23.608C74.3589 23.0447 74.5409 22.451 74.7663 21.827C74.9916 21.1943 75.2429 20.579 75.5203 19.981C75.8063 19.3743 76.0966 18.8283 76.3913 18.343C76.6946 17.849 76.9806 17.4547 77.2493 17.16C77.5179 16.8653 77.7519 16.718 77.9513 16.718C78.1246 16.718 78.2546 16.8177 78.3413 17.017C78.4279 17.2077 78.4713 17.4027 78.4713 17.602C78.4713 17.8447 78.4149 18.1393 78.3023 18.486C78.1983 18.824 78.0509 19.188 77.8603 19.578C77.6696 19.968 77.4443 20.3537 77.1843 20.735C76.9329 21.1163 76.6599 21.463 76.3653 21.775C76.0706 22.087 75.7629 22.3383 75.4423 22.529C75.3383 22.8063 75.2516 23.0837 75.1823 23.361C75.1129 23.6297 75.0609 23.8897 75.0263 24.141C75.0003 24.3923 74.9873 24.6307 74.9873 24.856C74.9873 24.9167 74.9873 24.9773 74.9873 25.038C74.9959 25.09 75.0046 25.1377 75.0133 25.181C75.0739 25.025 75.1519 24.8213 75.2473 24.57C75.3513 24.31 75.4726 24.037 75.6113 23.751C75.7586 23.465 75.9276 23.192 76.1183 22.932C76.3176 22.672 76.5429 22.464 76.7943 22.308C77.0456 22.1433 77.3229 22.061 77.6263 22.061C77.9036 22.061 78.1203 22.126 78.2763 22.256C78.4409 22.3773 78.5536 22.5333 78.6143 22.724C78.6836 22.9147 78.7183 23.1097 78.7183 23.309C78.7183 23.5777 78.6706 23.8377 78.5753 24.089C78.4886 24.3317 78.3976 24.5657 78.3023 24.791C78.2156 25.0077 78.1723 25.2157 78.1723 25.415C78.1723 25.571 78.2069 25.6837 78.2763 25.753C78.3456 25.8223 78.4323 25.857 78.5363 25.857C78.7269 25.857 78.9479 25.7617 79.1993 25.571C79.4593 25.3803 79.7106 25.129 79.9533 24.817C80.2046 24.4963 80.4213 24.1453 80.6033 23.764L80.7983 23.959C80.6076 24.3923 80.3779 24.7867 80.1093 25.142C79.8406 25.4973 79.5459 25.7833 79.2253 26C78.9133 26.208 78.5796 26.312 78.2243 26.312C77.9036 26.312 77.6609 26.2253 77.4963 26.052C77.3316 25.8873 77.2493 25.6793 77.2493 25.428C77.2493 25.246 77.2796 25.0467 77.3403 24.83C77.4096 24.6047 77.4746 24.3793 77.5353 24.154C77.5959 23.92 77.6263 23.7077 77.6263 23.517C77.6263 23.309 77.5786 23.1617 77.4833 23.075C77.3966 22.9883 77.2883 22.945 77.1583 22.945C76.9416 22.945 76.7466 23.0317 76.5733 23.205C76.3999 23.3783 76.2396 23.5993 76.0923 23.868C75.9536 24.1367 75.8236 24.4227 75.7023 24.726C75.5809 25.0207 75.4596 25.3067 75.3383 25.584C75.2256 25.8527 75.1043 26.0693 74.9743 26.234C74.8443 26.4073 74.7013 26.494 74.5453 26.494ZM75.6893 21.801C75.9146 21.6017 76.1356 21.3633 76.3523 21.086C76.5689 20.8 76.7683 20.501 76.9503 20.189C77.1409 19.877 77.3056 19.5737 77.4443 19.279C77.5829 18.9843 77.6913 18.72 77.7693 18.486C77.8559 18.252 77.9036 18.07 77.9123 17.94C77.9123 17.9227 77.9079 17.9097 77.8993 17.901C77.8993 17.8923 77.8949 17.888 77.8863 17.888C77.8343 17.888 77.7216 18.0007 77.5483 18.226C77.3749 18.4427 77.1713 18.7373 76.9373 19.11C76.7119 19.4827 76.4866 19.903 76.2613 20.371C76.0359 20.839 75.8453 21.3157 75.6893 21.801ZM81.4519 26.598C81.0706 26.598 80.7673 26.4853 80.5419 26.26C80.3253 26.0433 80.2169 25.7097 80.2169 25.259C80.2169 24.895 80.2863 24.4443 80.4249 23.907C80.5636 23.3697 80.7369 22.815 80.9449 22.243C80.8756 22.2257 80.7976 22.2127 80.7109 22.204C80.6329 22.1867 80.5593 22.1607 80.4899 22.126V21.775C80.6026 21.7923 80.7023 21.8053 80.7889 21.814C80.8843 21.8227 80.9839 21.8313 81.0879 21.84C81.2699 21.3807 81.4649 20.9343 81.6729 20.501C81.8896 20.0677 82.1019 19.682 82.3099 19.344C82.5179 19.006 82.7173 18.7373 82.9079 18.538C83.0986 18.3387 83.2633 18.239 83.4019 18.239C83.4886 18.239 83.5666 18.2693 83.6359 18.33C83.7053 18.3907 83.7399 18.4773 83.7399 18.59C83.7399 18.7547 83.6489 19.0017 83.4669 19.331C83.2936 19.6517 83.0726 20.033 82.8039 20.475C82.5439 20.9083 82.2926 21.3763 82.0499 21.879C82.1193 21.879 82.1886 21.879 82.2579 21.879C82.3359 21.879 82.4096 21.879 82.4789 21.879C82.8256 21.879 83.1549 21.8747 83.4669 21.866C83.7789 21.8487 84.0953 21.8227 84.4159 21.788V22.152C83.9393 22.204 83.5016 22.243 83.1029 22.269C82.7129 22.295 82.3489 22.308 82.0109 22.308C81.9849 22.308 81.9546 22.308 81.9199 22.308C81.8939 22.308 81.8679 22.308 81.8419 22.308C81.6513 22.75 81.4866 23.2007 81.3479 23.66C81.2179 24.1193 81.1529 24.5657 81.1529 24.999C81.1529 25.363 81.2093 25.623 81.3219 25.779C81.4346 25.9263 81.6166 26 81.8679 26C82.3013 26 82.7433 25.8007 83.1939 25.402C83.6446 25.0033 84.0346 24.466 84.3639 23.79L84.5459 23.92C84.3293 24.4227 84.0563 24.8777 83.7269 25.285C83.3976 25.6923 83.0379 26.013 82.6479 26.247C82.2666 26.481 81.8679 26.598 81.4519 26.598Z" fill="#F11919"/>
  </svg>